<?xml version="1.0" encoding="UTF-8"?>
<svg width="34px" height="37px" viewBox="0 0 34 37" version="1.1" xmlns="http://www.w3.org/2000/svg" xmlns:xlink="http://www.w3.org/1999/xlink">
    <!-- Generator: Sketch 50.2 (55047) - http://www.bohemiancoding.com/sketch -->
    <title>Fill 1</title>
    <desc>Created with Sketch.</desc>
    <defs></defs>
    <g id="Welcome" stroke="none" stroke-width="1" fill="none" fill-rule="evenodd">
        <g id="moz_fxa_pg" transform="translate(-944.000000, -1516.000000)" fill="#EE4155">
            <g id="pocket" transform="translate(87.000000, 1322.000000)">
                <g id="pocket-copy" transform="translate(854.000000, 194.000000)">
                    <g id="copy-block">
                        <path d="M29.7227557,15.6563528 L21.6103657,24.7268859 C21.1929518,25.2937942 20.5367886,25.5068097 20.0596079,25.5068097 C19.4632114,25.5068097 18.866815,25.2937942 18.3896343,24.7268859 L10.39646,15.6563528 C9.56131427,14.5935414 9.44209857,12.8218112 10.39646,11.6879946 C11.2910546,10.6958106 12.7823636,10.554178 13.6772761,11.6879946 L20.0596079,18.9867975 L26.5614732,11.6879946 C27.3966189,10.554178 28.88761,10.6958106 29.7227557,11.6879946 C30.5579014,12.8218112 30.5579014,14.5935414 29.7227557,15.6563528 M33.8387175,0.632715902 L6.28081609,0.632715902 C4.49130894,0.632715902 3,2.26281337 3,4.38881397 L3,16.5065264 C3,27.4908 10.6348914,36.6327159 20.0596079,36.6327159 C29.4245575,36.6327159 37,27.4908 37,16.5065264 L37,4.38881397 C37,2.26281337 35.5684579,0.632715902 33.8387175,0.632715902" id="Fill-1"></path>
                    </g>
                </g>
            </g>
        </g>
    </g>
</svg>