<svg width="496" height="534" fill="none" xmlns="http://www.w3.org/2000/svg"><path d="M22.928 150.119L8.423 159.17 0 144.189l27.14-18.257h17v85.827H22.929v-61.64zm33.847 50.248L68.94 185.23c6.395 5.774 14.038 9.675 21.836 9.675 9.047 0 14.038-4.993 14.038-11.079 0-6.398-5.303-10.612-13.882-10.612a25.908 25.908 0 00-15.753 5.306l-14.038-5.462 1.248-47.126h58.958v19.194H82.043l-.468 15.605c4.68-3.434 10.45-5.15 16.221-4.994 15.13 0 28.388 9.675 28.388 27.309 0 18.569-13.882 30.273-35.25 30.273-14.818.156-25.892-4.837-34.16-12.952zm-10.45 109.859c-4.368 3.745-9.983 5.929-15.754 6.085-12.166 0-20.589-8.582-20.589-20.754v-28.401H1.56v-16.853h8.422v-17.79H30.26v17.79h13.414v16.853H30.259v24.656c0 4.057 2.496 7.022 5.927 7.022 2.184 0 4.367-.78 5.927-2.185l4.212 13.577zm10.138-79.117c.156-6.086 5.147-10.924 11.23-10.924s11.074 4.994 11.074 11.08-4.99 11.079-11.074 11.079c-6.239.156-11.23-4.993-11.23-11.235zm.468 19.194h21.056v64.604H56.931v-64.604zm107.466 32.146c0 19.818-12.166 33.862-29.635 33.862a26.704 26.704 0 01-21.056-9.675v29.65H92.493v-85.983h21.213v8.27c5.147-6.242 12.946-9.831 21.056-9.675 17.469-.156 29.635 13.889 29.635 33.551zm-20.276 0c0-9.363-6.551-16.073-15.598-16.073-8.734 0-14.661 6.71-14.661 16.073s5.927 16.229 14.661 16.229c9.047 0 15.598-6.71 15.598-16.229zm26.827 24.031l8.423-13.576c6.395 4.526 14.038 7.178 21.993 7.334 4.679 0 7.174-1.56 7.174-4.057 0-3.121-4.211-4.369-10.606-5.93-12.478-2.809-24.02-6.086-24.176-20.13 0-12.328 10.138-21.535 26.048-21.535 9.358.156 18.405 2.965 26.204 8.271l-7.799 13.888c-5.615-3.589-12.634-6.398-18.405-6.398-3.9 0-6.551 1.717-6.551 3.745 0 2.809 2.807 3.433 10.294 5.462 11.542 2.809 24.332 6.554 24.332 21.223 0 12.952-10.45 21.378-27.139 21.378-10.607.156-21.057-3.277-29.792-9.675z" fill="#000"/><path d="M18.873 359.537h4.055v4.994h-4.055v14.356H12.79v-14.356h-2.496v-4.994h2.496v-1.404c-.156-3.277 2.34-6.086 5.615-6.242h.624c1.716 0 3.431.624 4.68 1.872l-1.248 3.745c-.468-.468-1.092-.624-1.872-.624-1.092 0-1.872.937-1.872 2.029v.624h.156zm6.239 9.675c-.312-5.93 4.211-11.079 10.138-11.391 5.928-.313 11.075 4.213 11.387 10.143.312 5.93-4.212 11.079-10.139 11.391h-.624c-5.77 0-10.45-4.525-10.762-10.143zm15.598 0c0-2.653-2.184-4.681-4.836-4.681-2.651 0-4.679 2.184-4.679 4.837 0 2.653 2.184 4.682 4.835 4.682 2.496-.156 4.68-2.341 4.68-4.838zm21.836-10.143v5.306c-3.9 0-6.395 2.184-6.395 5.773v-.156 8.739h-6.239v-19.35h6.395v3.589c1.092-2.341 3.587-3.901 6.239-3.901zm30.883 8.271v11.547h-6.083v-1.716c-1.404 1.404-3.431 2.184-5.303 2.184-4.056 0-7.33-2.496-7.33-6.242 0-3.745 3.742-6.398 8.11-6.398 1.56 0 3.12.312 4.523.937v-.312c0-2.029-1.56-3.59-4.211-3.59-1.716 0-3.276.469-4.836 1.249l-2.027-3.901c2.651-1.405 5.459-2.185 8.422-2.185 4.992.156 8.735 3.277 8.735 8.427zm-6.083 5.773v-2.028c-1.092-.468-2.34-.624-3.587-.624-1.56-.157-2.964.936-3.12 2.496v.156c0 1.405 1.248 2.497 2.652 2.497h.312c1.56 0 3.12-.936 3.743-2.497zm42.113-3.901c0 5.93-3.743 10.143-8.89 10.143-2.496 0-4.836-1.092-6.395-2.965v2.497h-6.395v-26.216h6.395v9.363c1.559-1.873 3.899-2.965 6.395-2.965 5.147 0 8.89 4.213 8.89 10.143zm-6.083 0c.156-2.497-1.716-4.681-4.367-4.837h-.312c-2.652.312-4.679 2.652-4.367 5.305a4.697 4.697 0 004.367 4.37c2.496 0 4.679-1.873 4.679-4.526v-.312zm23.084 3.277l3.744 3.745a12.23 12.23 0 01-7.955 2.965c-5.459.312-10.138-4.057-10.45-9.519v-.624c-.156-5.306 4.055-9.831 9.358-10.143h.624c6.083 0 9.671 4.525 9.671 11.86H137.57a4.354 4.354 0 004.211 3.277c1.872.156 3.432-.468 4.679-1.561zm-8.422-5.462h7.799c-.468-1.716-2.028-2.964-3.744-2.964-1.872.156-3.587 1.248-4.055 2.964zm29.167 10.456c-1.248 1.092-2.963 1.872-4.679 1.872-3.276.156-6.083-2.34-6.239-5.617v-9.207h-2.496v-4.994h2.496v-5.306h6.083v5.306h4.055v4.994h-4.055v7.334c-.156 1.092.624 2.029 1.716 2.029h.156c.624 0 1.247-.156 1.715-.625l1.248 4.214zm15.13 0c-1.248 1.092-2.964 1.872-4.68 1.872-3.275.156-6.083-2.34-6.239-5.617v-9.207h-2.495v-4.994h2.495v-5.306h6.083v5.306h4.056v4.994h-4.056v7.334c-.155 1.092.624 2.029 1.56 2.029h.156c.624 0 1.248-.156 1.872-.625l1.248 4.214zm16.845-4.994l3.743 3.745a12.226 12.226 0 01-7.954 2.965c-5.459.312-10.139-4.057-10.451-9.519v-.624c-.156-5.306 4.056-9.831 9.359-10.143h.624c6.083 0 9.67 4.525 9.67 11.86h-13.726a4.354 4.354 0 004.212 3.277c1.715 0 3.275-.468 4.523-1.561zm-8.579-5.462h7.799c-.468-1.716-2.028-2.964-3.743-2.964-1.872.156-3.432 1.248-4.056 2.964zm29.792-7.958v5.306c-3.9 0-6.395 2.184-6.395 5.773v-.156 8.739h-6.395v-19.35h6.239v3.589c1.247-2.341 3.743-3.901 6.551-3.901zM32.287 390.123v26.216h-6.395v-2.497c-1.56 1.873-3.9 2.965-6.395 2.965-5.147 0-8.89-4.213-8.89-10.143 0-5.93 3.587-10.143 8.89-10.143 2.495 0 4.835 1.092 6.395 2.965v-9.363h6.395zm-6.395 16.541c.156-2.497-1.56-4.525-4.056-4.838h-.467c-2.652.157-4.68 2.497-4.524 5.15.156 2.497 2.028 4.369 4.524 4.526 2.495 0 4.367-2.029 4.367-4.526.156-.156.156-.312.156-.312zm10.606-15.449c0-1.872 1.56-3.277 3.431-3.277 1.872.156 3.276 1.717 3.12 3.589-.156 1.717-1.404 2.965-3.12 3.121-2.027 0-3.431-1.56-3.431-3.433zm0 5.774h6.395v19.35h-6.395v-19.35zm30.883 0v17.321c0 4.994-4.367 8.583-10.762 8.583-3.12 0-6.24-.78-8.735-2.653l2.184-4.369c1.716 1.092 3.587 1.716 5.615 1.716 3.12 0 5.303-1.404 5.303-3.433v-1.872c-1.56 1.872-3.9 2.809-6.239 2.809-4.835 0-8.423-3.902-8.423-9.207 0-5.306 3.744-9.207 8.423-9.207 2.34 0 4.68.936 6.24 2.809v-2.341l6.394-.156zm-6.239 8.739c-.156-2.185-2.028-3.902-4.367-3.902-2.028.157-3.744 1.717-3.9 3.902.156 2.184 2.028 3.901 4.368 3.901 2.183-.156 3.743-1.873 3.9-3.901zm10.45-14.513c0-1.872 1.56-3.277 3.432-3.277 1.871.156 3.275 1.717 3.12 3.589-.157 1.717-1.404 2.965-3.12 3.121-1.872 0-3.432-1.56-3.432-3.433zm.156 5.774h6.24v19.35h-6.24v-19.35zm22.929 17.946c-1.248 1.092-2.964 1.716-4.68 1.872-3.275.156-6.083-2.341-6.239-5.618v-9.206h-2.651v-4.994h2.495v-5.306h6.083v5.306h4.056v4.994h-4.056v7.334c-.156 1.092.624 2.028 1.716 2.028h.156c.624 0 1.248-.156 1.716-.624l1.404 4.214zm20.9-10.144v11.548h-6.083v-1.717c-1.404 1.405-3.431 2.185-5.303 2.185-4.055 0-7.33-2.497-7.33-6.242s3.587-6.398 8.11-6.398c1.56 0 3.119.312 4.523.936v-.312c0-2.028-1.559-3.589-4.211-3.589-1.716 0-3.432.468-4.835 1.405l-2.028-3.902c2.652-1.404 5.459-2.184 8.423-2.184 4.835 0 8.734 3.121 8.734 8.27zm-6.239 5.774v-2.028c-1.092-.469-2.339-.625-3.587-.625-1.56-.156-2.964.937-3.12 2.497v.156c0 1.405 1.248 2.497 2.652 2.497h.312c1.56 0 3.275-.936 3.743-2.497zm10.295-20.442h6.395v26.216h-6.395v-26.216zm21.212 0h6.395v26.216h-6.395v-26.216zm10.606 1.092c0-1.872 1.56-3.277 3.432-3.277 1.872.156 3.275 1.717 3.119 3.589-.156 1.717-1.403 2.965-3.119 3.121-2.028 0-3.432-1.56-3.432-3.433zm.156 5.774h6.239v19.35h-6.239v-19.35zm17.938 0h4.055v4.994h-4.055v14.356h-6.083v-14.356h-2.496v-4.994h2.496v-1.405c-.156-3.277 2.339-6.085 5.615-6.241h.624c1.715 0 3.431.624 4.679 1.872l-1.248 3.745c-.468-.468-1.092-.624-1.716-.624-1.092 0-1.871.936-1.715 2.029v.156l-.156.468zm20.9 12.952l3.744 3.745a12.231 12.231 0 01-7.955 2.965c-5.459.312-10.139-4.057-10.45-9.519v-.624c-.156-5.306 4.055-9.831 9.358-10.143h.624c6.083 0 9.67 4.525 9.67 11.859h-13.881a4.353 4.353 0 004.211 3.278c1.872.156 3.431-.469 4.679-1.561zm-8.422-5.462h7.798c-.468-1.716-2.027-2.965-3.743-2.965-1.872.156-3.588 1.249-4.055 2.965z" fill="#7451A8"/></svg>